<svg id="Actual_Logo" data-name="Actual Logo" xmlns="http://www.w3.org/2000/svg" viewBox="0 0 103.48 196.59"><defs><style>.cls-1{fill:#1f9aff;}.cls-2{fill:#13377f;}.cls-3{fill:#fff;}</style></defs><title>ShineShareLogoNoBack</title><g id="LightS"><path class="cls-1" d="M28.55,65.14a2.48,2.48,0,0,1-.19-.26c-.14-.2-.28-.4-.4-.6.12.19.26.38.39.57Z" transform="translate(0 0)"/><path class="cls-1" d="M29.14,65.93,29,65.8l-.19-.27.2.27.05.06Z" transform="translate(0 0)"/><path class="cls-1" d="M41.14,76.87h0a2.73,2.73,0,0,1-.3-.21l.27.18Z" transform="translate(0 0)"/><path class="cls-1" d="M83.49,136a42.82,42.82,0,0,0-2.11-4.3h2v3.92C83.38,135.71,83.43,135.83,83.49,136Z" transform="translate(0 0)"/><path class="cls-1" d="M83.63,136.3a1.34,1.34,0,0,1-.07-.18l0,0Z" transform="translate(0 0)"/><path class="cls-1" d="M84,137.22l-.36-.92C83.75,136.57,83.87,136.88,84,137.22Z" transform="translate(0 0)"/><path class="cls-1" d="M53.9,74.06A34.65,34.65,0,0,0,75.13,94.85,23.46,23.46,0,0,0,53.9,74.06ZM101.31,87.4a35.45,35.45,0,0,0-6.25-11.29,47.53,47.53,0,0,0-9.79-8.86,92.61,92.61,0,0,0-8.53-5.17q-2.1-1.14-4.34-2.23Q67.15,57.33,63,55c-.6-.34-1.17-.68-1.73-1a42,42,0,0,1-5.35-3.82,19.6,19.6,0,0,1-4.5-5.22,12.3,12.3,0,0,1-1.58-6.25,11.76,11.76,0,0,1,1.41-5.76,13.4,13.4,0,0,1,4-4.41,19.71,19.71,0,0,1,6.34-2.85,31.68,31.68,0,0,1,8.33-1,45.21,45.21,0,0,1,7,.58A48.94,48.94,0,0,1,84.4,27,48.24,48.24,0,0,1,91.69,30a39.53,39.53,0,0,1,6.54,4.26V5.33a57.86,57.86,0,0,0-13.29-4A93.61,93.61,0,0,0,68.4,0a66.38,66.38,0,0,0-18,2.38,42.8,42.8,0,0,0-15,7.4,35.62,35.62,0,0,0-10.2,12.83q-3.75,7.8-3.75,18.64A44.1,44.1,0,0,0,24,56.47l.31.8c.28.74.55,1.39.85,2,.12.28.25.55.4.83l0,.05,0,0,.06.11c.11.23.22.46.35.69s.34.63.52,1,.37.65.58,1,.31.51.48.77l.38.57.19.3.2.27.2.29c.09.13.18.26.29.39l.2.27.05.06.05.07.13.18c.14.19.28.37.43.55a0,0,0,0,1,0,0l.67.82.09.09.07.1.09.11c.09.1.18.21.28.31l.09.1.2.24.07.07c.2.23.41.46.62.68l.36.38.23.23.72.73.14.13.61.58.49.46.57.52.53.45.09.07.08.07.49.41.11.1,0,0a28.24,28.24,0,0,1,14.79-4.51,34.34,34.34,0,0,0,.65-6.69,34.34,34.34,0,0,0,.65,6.69A28.57,28.57,0,0,1,80.37,96.19a34.4,34.4,0,0,0,6,.52,34.18,34.18,0,0,0-5.94.51,1.48,1.48,0,0,1,0,.21,28.47,28.47,0,0,1-9.9,21.62l.1.08.88.74.92.81.37.34.3.27.91.87c.49.49,1,1,1.42,1.46.28.28.55.57.8.87.44.48.85,1,1.23,1.42s.6.75.89,1.12.54.72.79,1.08a.64.64,0,0,1,.1.13c.18.24.34.48.5.73s.29.42.42.63.41.64.6,1,.44.71.65,1.1h2v3.92c0,.13.1.25.16.38l.07.16,0,0,0,.15c.12.27.24.58.36.92l.2.53a37.24,37.24,0,0,0,5.21-3.29,34.22,34.22,0,0,0,10.29-12.79q3.8-7.89,3.79-19.51A45.48,45.48,0,0,0,101.31,87.4Zm-43,23.7.89.43,1.17.67,5.94,3.69a23.38,23.38,0,0,0,9-17.37A34.62,34.62,0,0,0,58.28,111.1Zm-4.38-37A34.65,34.65,0,0,0,75.13,94.85,23.46,23.46,0,0,0,53.9,74.06ZM40.84,76.67l.27.18,0,0h0Q42,77.47,42.9,78l.72.43.78.46c.75.43,1.52.86,2.33,1.29a33.6,33.6,0,0,0,3-6.12A23.13,23.13,0,0,0,40.84,76.67ZM53.9,74.06A34.65,34.65,0,0,0,75.13,94.85,23.46,23.46,0,0,0,53.9,74.06Z" transform="translate(0 0)"/><path class="cls-1" d="M28.55,65.14a2.48,2.48,0,0,1-.19-.26c-.14-.2-.28-.4-.4-.6.12.19.26.38.39.57Z" transform="translate(0 0)"/><path class="cls-1" d="M29.14,65.93,29,65.8l-.19-.27.2.27.05.06Z" transform="translate(0 0)"/><path class="cls-1" d="M41.14,76.87h0a2.73,2.73,0,0,1-.3-.21l.27.18Z" transform="translate(0 0)"/><path class="cls-1" d="M83.49,136a42.82,42.82,0,0,0-2.11-4.3h2v3.92C83.38,135.71,83.43,135.83,83.49,136Z" transform="translate(0 0)"/><path class="cls-1" d="M83.63,136.3a1.34,1.34,0,0,1-.07-.18l0,0Z" transform="translate(0 0)"/><path class="cls-1" d="M84,137.22l-.36-.92C83.75,136.57,83.87,136.88,84,137.22Z" transform="translate(0 0)"/></g><g id="DarkS"><path class="cls-2" d="M40.28,82.26c-.64-.4-1.26-.79-1.89-1.21s-1.07-.7-1.62-1.09l-.15-.1,0,0-.18-.13a23.41,23.41,0,0,0-7.94,15.13A34.45,34.45,0,0,0,43.79,84.28C42.57,83.62,41.4,83,40.28,82.26ZM28.36,98.53a23.45,23.45,0,0,0,21.85,22.31A34.62,34.62,0,0,0,28.36,98.53Zm32.83,20c-1.06-.68-2.16-1.34-3.3-2l-.68-.39,0,0-1.53-.74a34.81,34.81,0,0,0-2.25,5.46,23.17,23.17,0,0,0,8.1-2h0l.08,0ZM81,144.64c-.17-.84-.37-1.66-.59-2.45-.17-.62-.36-1.22-.56-1.81-.07-.19-.13-.38-.21-.57l-.33-.88c-.1-.29-.22-.58-.34-.86l0-.09c-.18-.45-.37-.89-.58-1.32h0c-.19-.44-.41-.88-.63-1.31s-.43-.81-.65-1.21-.37-.64-.57-1a33.28,33.28,0,0,0-2.89-4.07,42.65,42.65,0,0,0-3.1-3.37l-1.09-1c-.38-.35-.77-.7-1.17-1s-.8-.68-1.21-1c-.24-.2-.48-.39-.73-.57A28.22,28.22,0,0,1,52.19,126a34.58,34.58,0,0,0-.39,5.22,34.58,34.58,0,0,0-.39-5.22,28.58,28.58,0,0,1-28.2-28.58,1.48,1.48,0,0,1,0-.21,34.29,34.29,0,0,0-5.95-.51,34.52,34.52,0,0,0,6-.52A28.52,28.52,0,0,1,32.32,76.5q-.62-.51-1.2-1c-.45-.4-.89-.81-1.32-1.24l-.1-.09-.36-.36-.4-.4h0c-.51-.51-1-1-1.45-1.55l-.26-.3c-.23-.25-.45-.5-.65-.76-.52-.61-1-1.23-1.48-1.86-.29-.37-.56-.75-.83-1.13a39.93,39.93,0,0,1-3.17-5.34c-.18-.35-.34-.69-.5-1-.35-.75-.67-1.52-1-2.3A40,40,0,0,0,14,62.76,35.49,35.49,0,0,0,3.75,75.6Q0,83.39,0,94.24q0,13.85,6.87,23.62A48.4,48.4,0,0,0,22,131.32c1.81,1.08,3.73,2.12,5.76,3.1,3.66,1.74,7.08,3.46,10.25,5.13a61.23,61.23,0,0,1,5.36,3.19c1,.67,2,1.35,2.84,2a23.17,23.17,0,0,1,5.46,5.91,13.42,13.42,0,0,1,2,7.26,12.6,12.6,0,0,1-1.25,5.57A12.12,12.12,0,0,1,48.62,168a19.35,19.35,0,0,1-6.33,3A33.05,33.05,0,0,1,33.41,172a44.23,44.23,0,0,1-17.16-3.53A50.1,50.1,0,0,1,.5,157.86v31a50.94,50.94,0,0,0,15.37,5.81,87.64,87.64,0,0,0,18.71,1.94,75.72,75.72,0,0,0,18.21-2.13,41.27,41.27,0,0,0,15.12-7A34.27,34.27,0,0,0,78.2,174.66Q82,166.77,82,155.14A50.3,50.3,0,0,0,81,144.64ZM28.36,98.53a23.45,23.45,0,0,0,21.85,22.31A34.62,34.62,0,0,0,28.36,98.53Z" transform="translate(0 0)"/><path class="cls-3" d="M61.19,118.52c-1.06-.68-2.16-1.34-3.3-2l-.68-.39,4.28,2.67h0l.08,0Z" transform="translate(0 0)"/><path class="cls-2" d="M61.58,118.77l-.08,0h0l-4.28-2.67.68.39c1.14.65,2.24,1.31,3.3,2Z" transform="translate(0 0)"/><path class="cls-2" d="M61.58,118.77l-.08,0h0l-4.28-2.67.68.39c1.14.65,2.24,1.31,3.3,2Z" transform="translate(0 0)"/></g></svg>